HIERARCHY
ROOT Hips
{
	OFFSET 0.000000 0.000000 0.000000
	CHANNELS 6 Xposition Yposition Zposition Yrotation Xrotation Zrotation
	JOINT Chest
	{
		OFFSET 0.000000 -0.009281 11.569106
		CHANNELS 3 Yrotation Xrotation Zrotation
		JOINT Chest2
		{
			OFFSET -0.000000 0.016865 9.269641
			CHANNELS 3 Yrotation Xrotation Zrotation
			JOINT Chest3
			{
				OFFSET -0.000000 0.000001 8.374491
				CHANNELS 3 Yrotation Xrotation Zrotation
				JOINT Chest4
				{
					OFFSET -0.000000 0.000001 8.374493
					CHANNELS 3 Yrotation Xrotation Zrotation
					JOINT Neck
					{
						OFFSET -0.000000 0.000002 12.152554
						CHANNELS 3 Yrotation Xrotation Zrotation
						JOINT Head
						{
							OFFSET -0.000000 0.040101 7.802319
							CHANNELS 3 Yrotation Xrotation Zrotation
							End Site
							{
								OFFSET -0.000000 0.020947 14.853096
							}
						}
					}
					JOINT RightCollar
					{
						OFFSET 2.894404 0.000001 6.791374
						CHANNELS 3 Yrotation Xrotation Zrotation
						JOINT RightShoulder
						{
							OFFSET 13.574684 0.000001 0.000000
							CHANNELS 3 Yrotation Xrotation Zrotation
							JOINT RightElbow
							{
								OFFSET 23.923903 0.000002 0.000000
								CHANNELS 3 Yrotation Xrotation Zrotation
								JOINT RightWrist
								{
									OFFSET 19.846718 0.012767 0.000000
									CHANNELS 3 Yrotation Xrotation Zrotation
									End Site
									{
										OFFSET 14.973145 0.000001 0.000000
									}
								}
							}
						}
					}
					JOINT LeftCollar
					{
						OFFSET -2.894404 0.000001 6.791374
						CHANNELS 3 Yrotation Xrotation Zrotation
						JOINT LeftShoulder
						{
							OFFSET -13.574684 -0.000001 0.000000
							CHANNELS 3 Yrotation Xrotation Zrotation
							JOINT LeftElbow
							{
								OFFSET -23.923903 -0.000002 0.000000
								CHANNELS 3 Yrotation Xrotation Zrotation
								JOINT LeftWrist
								{
									OFFSET -19.846718 0.012763 0.000000
									CHANNELS 3 Yrotation Xrotation Zrotation
									End Site
									{
										OFFSET -14.973145 -0.000001 0.000000
									}
								}
							}
						}
					}
				}
			}
		}
	}
	JOINT RightHip
	{
		OFFSET 9.469263 0.004643 0.045487
		CHANNELS 3 Yrotation Xrotation Zrotation
		JOINT RightKnee
		{
			OFFSET 0.000000 0.002661 -40.478676
			CHANNELS 3 Yrotation Xrotation Zrotation
			JOINT RightAnkle
			{
				OFFSET 0.000000 0.049106 -35.224068
				CHANNELS 3 Yrotation Xrotation Zrotation
				JOINT RightToe
				{
					OFFSET -0.000001 12.539529 -6.151390
					CHANNELS 3 Yrotation Xrotation Zrotation
					End Site
					{
						OFFSET -0.000001 5.044994 -1.291870
					}
				}
			}
		}
	}
	JOINT LeftHip
	{
		OFFSET -9.469263 0.004641 0.045487
		CHANNELS 3 Yrotation Xrotation Zrotation
		JOINT LeftKnee
		{
			OFFSET 0.000000 0.002661 -40.478676
			CHANNELS 3 Yrotation Xrotation Zrotation
			JOINT LeftAnkle
			{
				OFFSET 0.000000 0.049106 -35.224068
				CHANNELS 3 Yrotation Xrotation Zrotation
				JOINT LeftToe
				{
					OFFSET -0.000001 12.539529 -6.151390
					CHANNELS 3 Yrotation Xrotation Zrotation
					End Site
					{
						OFFSET -0.000001 5.044994 -1.291870
					}
				}
			}
		}
	}
}
MOTION
Frames: 13
Frame Time: 0.016667
-5.086752 -42.876862 83.094238 -3.025965 0.488657 -120.414896 -1.734881 -4.111338 3.571453 -0.778326 -1.881230 1.517260 -0.778326 -1.881230 1.517260 -0.579025 -1.412868 1.135452 1.794384 -12.053978 -3.795858 1.808195 13.792504 -6.489979 10.022760 5.109023 -1.720684 43.188160 -15.339980 -15.171788 -28.157532 -61.504453 87.327254 -44.971431 40.701350 50.428458 -7.773880 4.838030 -7.468061 -40.454377 -8.413624 20.580960 -3.794255 -65.258694 -59.532605 30.192209 15.962980 -75.184550 -6.233348 2.054150 -9.807291 6.780920 -19.753336 -18.640763 -4.395191 9.241722 -2.202677 4.702502 3.863619 0.255913 1.033479 -1.946363 9.970628 -0.215115 -7.040032 7.491650 -0.033572 3.368476 8.507509 0.221550 1.593781 -0.020788 
-4.808181 -42.177670 83.109520 -2.955292 0.841965 -120.477092 -1.920421 -4.032977 3.626064 -0.822545 -1.866276 1.539973 -0.822545 -1.866275 1.539972 -0.612155 -1.401793 1.152366 1.778512 -12.032730 -3.824894 1.764626 13.830665 -6.552792 10.141544 5.224656 -1.676137 43.257323 -15.598699 -15.151675 -27.794236 -61.540947 86.893154 -45.031062 40.753481 50.424537 -7.805135 4.897982 -7.609360 -40.325888 -8.478832 20.586566 -3.725104 -65.101941 -59.584767 30.180178 15.932009 -75.439836 -7.113899 2.426466 -8.213138 7.429842 -19.264969 -17.421193 -4.878540 8.827523 -5.032736 4.017234 2.706000 0.207807 0.470575 -1.372120 8.696555 -0.491351 -7.618361 7.523291 0.030734 3.310438 9.251539 0.464830 1.652562 0.014593 
-4.875859 -41.456985 83.159752 -2.788650 1.074961 -120.555639 -1.946164 -3.906739 3.687501 -0.796511 -1.818317 1.532545 -0.796511 -1.818317 1.532543 -0.592776 -1.365747 1.146940 1.687326 -12.121005 -3.829443 1.592125 13.663096 -6.598234 10.250569 5.189355 -1.481033 43.231614 -15.769780 -15.199992 -27.364466 -61.616229 86.402323 -45.194976 41.032710 50.387166 -7.963401 5.096340 -7.454445 -40.348649 -8.673796 20.544598 -3.034824 -65.066827 -59.928565 30.071100 15.867892 -75.545294 -7.576520 2.890143 -7.050468 7.500019 -19.331305 -17.147782 -4.929736 8.828742 -6.107816 3.526244 1.919939 0.254172 0.204661 -0.522597 7.871595 -0.374653 -8.134754 5.657350 0.082987 2.915209 10.107959 0.453922 1.618309 0.038585 
-4.735373 -40.846901 83.212830 -2.786239 1.253165 -120.417260 -2.003795 -3.886939 3.580225 -0.749092 -1.783278 1.524630 -0.749092 -1.783278 1.524630 -0.557328 -1.339339 1.141196 1.609102 -12.211666 -3.846807 1.439283 13.491188 -6.662294 10.186250 5.060219 -1.494186 43.242385 -15.792263 -15.240485 -27.456426 -61.644513 86.484641 -45.373370 41.382282 50.337671 -7.817278 4.838132 -7.219049 -40.532566 -8.500675 20.143319 -2.432846 -65.205118 -60.333206 30.036109 15.721118 -75.373385 -7.808914 3.650006 -6.566262 6.860600 -19.972706 -17.613038 -4.650081 8.891282 -5.682113 3.196832 1.365625 0.208384 -0.202888 0.143492 6.355819 0.391045 -8.612916 2.676245 -0.163585 2.436940 11.026706 0.274274 1.600513 0.007302 
-4.802150 -40.256927 83.244278 -2.757988 1.353126 -120.319656 -2.031507 -3.883560 3.554950 -0.710523 -1.784773 1.522009 -0.710523 -1.784773 1.522012 -0.528407 -1.340361 1.139344 1.581163 -12.230935 -3.877958 1.373627 13.453425 -6.733099 10.121429 5.157167 -1.526669 43.310434 -15.746542 -15.482804 -27.627745 -61.560147 86.641974 -45.359949 41.502401 50.385592 -7.740197 4.655512 -7.267764 -40.550895 -8.375267 19.993762 -2.569239 -65.289273 -60.404465 30.197731 15.456609 -75.116822 -7.966693 4.042622 -6.113436 6.232196 -20.281180 -17.153609 -4.654160 8.862040 -5.772592 3.050526 0.995654 0.195000 -0.462666 0.898627 3.996494 1.165155 -8.853394 -0.551549 -0.383340 1.669522 11.459177 0.005203 1.553718 -0.003846 
-4.999831 -39.752682 83.253227 -2.726905 1.332536 -120.171550 -1.996355 -3.900529 3.454243 -0.674901 -1.799341 1.515204 -0.674901 -1.799341 1.515203 -0.501675 -1.351190 1.134323 1.580990 -12.221993 -3.885665 1.369641 13.469808 -6.748145 10.033442 4.921964 -1.449288 43.374047 -15.354935 -15.533281 -27.765269 -61.415162 86.719490 -45.214206 41.388761 50.483414 -7.821680 4.756768 -7.224983 -40.433135 -8.606683 20.074431 -3.035402 -65.287668 -60.265512 30.435712 15.216830 -74.930624 -7.914207 4.503285 -5.177224 5.804821 -20.373066 -16.248544 -4.902670 8.598639 -6.272206 2.825271 0.699397 0.175350 -0.539491 1.339346 0.874627 1.882545 -8.764552 -3.589999 -0.609762 1.032577 11.315953 -0.323538 1.379932 -0.011370 
-5.016171 -39.277382 83.240570 -2.737716 1.254702 -120.177042 -2.002187 -3.951671 3.429667 -0.643380 -1.811114 1.526520 -0.643380 -1.811114 1.526519 -0.477973 -1.359955 1.142891 1.598460 -12.201895 -3.873882 1.407081 13.508168 -6.718785 9.964193 4.760867 -1.466792 43.355100 -15.130846 -15.457691 -28.064515 -61.289671 86.998824 -45.104247 41.221407 50.541460 -7.872573 4.748293 -7.207859 -40.379457 -8.614234 20.214438 -3.114301 -65.264056 -60.323800 30.566036 15.134714 -74.819238 -7.761120 4.750673 -3.750158 4.816404 -20.243113 -14.502879 -3.581439 8.596826 -5.400980 1.664633 0.347957 0.202043 -0.185660 1.556515 -2.432869 2.361825 -8.117361 -6.319382 -1.022958 0.296777 10.612605 -0.656481 1.095882 -0.082200 
-5.197709 -38.888309 83.218864 -2.697220 1.126970 -120.212613 -1.971616 -4.016624 3.356673 -0.623062 -1.824719 1.552121 -0.623062 -1.824720 1.552126 -0.462626 -1.370135 1.162134 1.626236 -12.170808 -3.844899 1.471036 13.567778 -6.652472 9.997514 4.891717 -1.489580 43.149860 -15.222289 -15.367487 -28.407626 -61.259079 87.470169 -45.126930 41.180706 50.524992 -7.847032 4.779795 -7.208062 -40.536756 -8.389957 20.378739 -2.773527 -65.192592 -60.521302 30.536225 15.031634 -74.811492 -6.967732 4.852008 -2.297720 3.037618 -19.741620 -10.237176 -1.726035 8.940737 -4.847236 0.112808 -0.308027 0.185372 0.166914 1.416487 -6.089197 2.713874 -7.140823 -8.293708 -1.383847 -0.081376 9.484410 -0.854372 0.707826 -0.095625 
-5.491499 -38.588512 83.168755 -2.558447 1.067521 -120.362085 -1.926106 -3.989988 3.358084 -0.625395 -1.822646 1.569938 -0.625395 -1.822647 1.569936 -0.464327 -1.368604 1.175490 1.664587 -12.161807 -3.800939 1.562520 13.587143 -6.552417 10.039798 4.990761 -1.539241 42.857856 -15.434412 -15.137530 -28.483103 -61.348151 87.801460 -45.257482 41.195439 50.441808 -7.743684 4.768191 -7.151037 -40.832575 -8.057152 20.437565 -2.403653 -65.059314 -60.632744 30.357940 14.868390 -74.967883 -6.497776 4.972044 0.107143 1.879471 -19.297735 -5.351985 -0.066613 9.513657 -5.237655 -1.069372 -0.774641 0.374705 0.696089 1.560165 -9.640761 2.863784 -6.200582 -9.516690 -2.004511 -0.407275 8.189700 -0.854259 0.372185 -0.169298 
-5.750201 -38.430473 83.084236 -2.447942 1.126842 -120.487419 -1.958270 -3.939219 3.334246 -0.651480 -1.793214 1.587795 -0.651480 -1.793215 1.587795 -0.483914 -1.346616 1.188841 1.714369 -12.185689 -3.762349 1.674904 13.545714 -6.456933 10.037167 5.042631 -1.633227 42.712731 -15.672088 -14.981414 -28.321767 -61.478219 87.873799 -45.327379 41.107907 50.355167 -7.673800 4.670345 -7.226344 -41.000669 -7.711763 20.460918 -2.113473 -64.926972 -60.746193 30.219229 14.708995 -75.268370 -6.449322 5.636575 3.893204 1.322799 -19.342756 -2.944684 2.241425 10.050565 -4.037142 -2.165786 -0.949286 0.638288 1.144514 1.764652 -12.271832 2.832186 -5.475813 -10.059573 -2.968025 -0.541177 6.564956 -0.418751 0.198405 -0.259375 
-6.196458 -38.499592 82.952835 -2.383610 1.232178 -120.634200 -2.011842 -3.896389 3.362324 -0.681903 -1.751451 1.602201 -0.681903 -1.751452 1.602202 -0.506799 -1.315388 1.199605 1.743471 -12.214872 -3.733109 1.744012 13.493329 -6.388022 10.013565 4.958786 -1.626860 42.719650 -15.741704 -14.978122 -28.060594 -61.551220 87.756647 -45.321328 40.959535 50.291550 -7.698664 4.770793 -7.226171 -40.995618 -7.778108 20.444582 -1.606158 -64.877897 -61.140855 30.115329 14.687173 -75.475182 -6.484436 6.236171 8.158306 0.723574 -19.652401 -2.022825 5.088359 10.791029 -1.822571 -3.048342 -0.939760 0.896516 1.555868 2.045919 -13.459304 2.576615 -5.114453 -9.629389 -4.293113 -0.431725 4.692440 0.448012 0.055363 -0.373480 
-6.559341 -38.562077 82.805717 -2.328794 1.291919 -120.806430 -1.998951 -3.875939 3.452002 -0.697961 -1.722201 1.603330 -0.697960 -1.722201 1.603332 -0.518916 -1.293496 1.200442 1.733408 -12.206770 -3.704549 1.736589 13.508613 -6.337962 10.015893 4.960235 -1.547150 42.785951 -15.803437 -15.152816 -27.765947 -61.521693 87.545642 -45.255399 40.782561 50.262208 -7.776237 5.013063 -7.130561 -40.876800 -8.142177 20.361448 -1.194716 -64.955666 -61.468779 30.031051 14.866853 -75.577956 -6.034600 6.614072 11.850815 0.440237 -20.315593 -1.393613 6.881015 12.087002 0.286610 -3.515630 -1.065778 0.930787 1.825376 2.323270 -12.929336 2.151327 -4.969009 -8.652327 -4.927518 -0.204901 2.380420 0.945234 -0.240680 -0.513559 
-6.483305 -37.749741 82.700371 -2.388849 1.612340 -120.902353 -2.265573 -3.803922 3.487250 -0.682896 -1.722597 1.589117 -0.682896 -1.722598 1.589114 -0.507657 -1.293734 1.189822 1.679849 -12.157636 -3.673108 1.645752 13.598458 -6.301847 10.058580 5.020795 -1.460543 42.783957 -15.748017 -15.310583 -27.572318 -61.507978 87.431804 -45.091645 40.628711 50.313369 -7.831138 5.070604 -7.129561 -40.733558 -8.408378 20.211090 -1.276074 -65.074723 -61.302136 30.121640 15.130025 -75.634755 -5.376577 7.121421 14.123987 0.370280 -21.609301 -0.982809 7.164178 13.362603 2.415085 -3.355532 -1.087315 0.618698 1.125834 2.232803 -11.276023 2.394741 -4.204740 -8.169356 -4.959920 -0.281220 0.772766 0.881400 -0.601873 -1.086172 
